<svg width="106" height="76" viewBox="0 0 106 76" fill="none" xmlns="http://www.w3.org/2000/svg">
<path d="M77.3114 75.9949C74.0359 75.9949 71.2216 75.787 68.8684 75.3713C66.5469 74.9555 64.5753 74.4118 62.9535 73.7401C61.3635 73.0685 60.0914 72.3009 59.1374 71.4373C58.1834 70.5418 57.4361 69.6303 56.8955 68.7028C56.3867 67.7433 56.0528 66.7998 55.8938 65.8722C55.7348 64.9447 55.6553 64.0972 55.6553 63.3296C55.6553 63.0646 55.8701 62.8498 56.135 62.8498H68.8691C69.8081 62.8498 70.5905 63.5851 70.8718 64.481C71.0944 65.0567 71.5078 65.6004 72.112 66.1121C72.748 66.5919 73.6384 67.0077 74.7833 67.3595C75.9281 67.7113 77.4704 67.8872 79.4102 67.8872H79.8395C81.7475 67.8872 83.2581 67.7912 84.3711 67.5993C85.5159 67.4074 86.3904 67.1676 86.9946 66.8797C87.6306 66.5599 88.044 66.2081 88.2348 65.8243C88.4256 65.4085 88.521 64.9767 88.521 64.529V64.481C88.521 64.0332 88.4256 63.6334 88.2348 63.2816C88.0758 62.8978 87.7101 62.562 87.1377 62.2741C86.5653 61.9863 85.7226 61.7624 84.6096 61.6025C83.5284 61.4426 82.0496 61.3306 80.1734 61.2667L73.5907 61.0748C70.1563 60.9788 67.3101 60.627 65.0523 60.0193C62.8263 59.3797 61.0454 58.5801 59.7098 57.6206C58.406 56.6611 57.4838 55.5577 56.9432 54.3103C56.4344 53.063 56.18 51.7357 56.18 50.3284V49.8966C56.18 48.4574 56.4662 47.0821 57.0386 45.7708C57.611 44.4275 58.6604 43.2601 60.1868 42.2686C61.7133 41.2772 63.7962 40.4936 66.4356 39.9179C69.0751 39.3102 72.4618 39.0063 76.5959 39.0063H80.8412C85.2297 39.0063 88.8232 39.3262 91.6216 39.9658C94.42 40.6055 96.6143 41.4531 98.2043 42.5085C99.7943 43.564 100.891 44.7793 101.496 46.1546C102.1 47.4979 102.402 48.8732 102.402 50.2804C102.402 50.4924 102.23 50.6642 102.018 50.6642H88.8204C88.1631 50.6642 87.6027 50.1582 87.3285 49.5608C87.1695 49.113 86.7879 48.6973 86.1837 48.3135C85.6113 47.8977 84.7527 47.5619 83.6079 47.306C82.4949 47.0181 80.9843 46.8742 79.0763 46.8742H78.5993C76.8185 46.8742 75.4034 46.9542 74.3539 47.1141C73.3363 47.242 72.5572 47.4339 72.0166 47.6898C71.476 47.9137 71.1262 48.1855 70.9672 48.5054C70.84 48.8252 70.7764 49.161 70.7764 49.5128V49.5608C70.7764 49.9126 70.8559 50.2484 71.0149 50.5683C71.2057 50.8881 71.5714 51.176 72.112 51.4318C72.6844 51.6877 73.4635 51.8956 74.4493 52.0555C75.467 52.1834 76.8185 52.2634 78.5039 52.2954L84.8958 52.4393C88.2666 52.5352 91.1287 52.8071 93.4819 53.2549C95.867 53.7026 97.8068 54.3743 99.3014 55.2698C100.828 56.1334 101.925 57.2208 102.593 58.5321C103.292 59.8434 103.642 61.3946 103.642 63.1857V63.8573C103.642 65.3605 103.372 66.8477 102.831 68.319C102.291 69.7582 101.225 71.0535 99.6353 72.2049C98.0453 73.3243 95.8192 74.2359 92.9572 74.9395C90.0952 75.6431 86.3268 75.9949 81.6521 75.9949H77.3114Z" fill="white"/>
<path d="M28.048 38.9634C31.8641 38.9634 35.1554 39.2512 37.922 39.8269C40.6887 40.3706 43.026 41.1222 44.934 42.0817C46.8421 43.0093 48.3844 44.0807 49.561 45.2961C50.7376 46.5114 51.6439 47.7748 52.2799 49.0861C52.916 50.3974 53.3453 51.7087 53.5679 53.02C53.7905 54.3313 53.9018 55.5467 53.9018 56.6661V58.1053C53.9018 59.2247 53.7905 60.4401 53.5679 61.7514C53.3771 63.0627 52.9478 64.39 52.2799 65.7333C51.6439 67.0446 50.7376 68.324 49.561 69.5713C48.4162 70.7867 46.8739 71.8741 44.934 72.8336C43.026 73.7931 40.6887 74.5607 37.922 75.1364C35.1554 75.7121 31.8641 75.9999 28.048 75.9999H25.9015C22.0854 75.9999 18.7782 75.7121 15.9797 75.1364C13.2131 74.5607 10.8758 73.7931 8.96773 72.8336C7.0597 71.8741 5.51738 70.7867 4.34076 69.5713C3.16415 68.324 2.25783 67.0446 1.62182 65.7333C0.985812 64.39 0.556506 63.0627 0.333903 61.7514C0.1113 60.4401 0 59.2247 0 58.1053V56.6661C0 55.5467 0.0954051 54.3313 0.286208 53.02C0.508811 51.7087 0.938116 50.3974 1.57413 49.0861C2.24194 47.7748 3.16415 46.5114 4.34076 45.2961C5.51738 44.0807 7.0597 43.0093 8.96773 42.0817C10.8758 41.1222 13.2131 40.3706 15.9797 39.8269C18.7464 39.2512 22.0536 38.9634 25.9015 38.9634H28.048ZM39.8778 57.0019C39.8778 56.0424 39.687 55.0669 39.3054 54.0754C38.9556 53.084 38.3036 52.1884 37.3496 51.3889C36.3956 50.5573 35.0759 49.8856 33.3905 49.3739C31.7369 48.8302 29.5903 48.5583 26.9509 48.5583C24.2796 48.5583 22.1013 48.8302 20.4159 49.3739C18.7305 49.8856 17.4107 50.5573 16.4567 51.3889C15.5345 52.1884 14.8985 53.084 14.5487 54.0754C14.1989 55.0669 14.024 56.0424 14.024 57.0019V57.5776C14.024 58.5051 14.1989 59.4966 14.5487 60.552C14.9303 61.5755 15.5981 62.519 16.5521 63.3826C17.5061 64.2461 18.81 64.9657 20.4636 65.5414C22.149 66.0851 24.3114 66.357 26.9509 66.357C29.5585 66.357 31.7051 66.0851 33.3905 65.5414C35.0759 64.9977 36.3956 64.3101 37.3496 63.4785C38.3036 62.615 38.9556 61.6715 39.3054 60.648C39.687 59.6245 39.8778 58.6331 39.8778 57.6736V57.0019Z" fill="white"/>
<path d="M101.342 0C103.636 0 105.494 1.85895 105.494 4.15208V4.57933C105.494 6.87246 103.636 8.73142 101.342 8.73142H71.6269C70.3949 8.73142 69.3961 9.73019 69.3961 10.9622C69.3961 12.1943 70.3949 13.1931 71.6269 13.1931H100.818C103.111 13.1931 104.97 15.052 104.97 17.3452V17.8204C104.97 20.1135 103.111 21.9725 100.818 21.9725H73.5482C71.255 21.9725 69.3961 23.8314 69.3961 26.1246V31.5412C69.3961 33.8343 67.5371 35.6933 65.244 35.6933H60.1443C57.8511 35.6933 55.9922 33.8343 55.9922 31.5412V4.15209C55.9922 1.85895 57.8511 0 60.1443 0H101.342Z" fill="white"/>
<path d="M1.95557 4.15209C1.95557 1.85895 3.81452 0 6.10765 0H27.1415C32.2614 0 36.475 0.495739 39.7822 1.48722C43.0895 2.44671 45.6971 3.72604 47.6051 5.3252C49.5449 6.89238 50.8806 8.68344 51.612 10.6984C52.3752 12.7133 52.7568 14.7762 52.7568 16.8871V18.3264C52.7568 19.6697 52.6137 21.045 52.3275 22.4522C52.0413 23.8275 51.5325 25.1548 50.8011 26.4341C50.1015 27.7135 49.1315 28.9288 47.8913 30.0802C46.6511 31.1996 45.077 32.1751 43.169 33.0067C41.2927 33.8382 39.0349 34.4939 36.3955 34.9736C33.7878 35.4534 30.7191 35.6933 27.1892 35.6933H6.10765C3.81452 35.6933 1.95557 33.8343 1.95557 31.5412V4.15209ZM15.5026 22.0901C15.5026 24.3833 17.3615 26.2422 19.6546 26.2422H25.5674C28.5248 26.2422 30.8622 25.9544 32.5794 25.3787C34.3284 24.803 35.6481 24.0993 36.5386 23.2678C37.4608 22.4042 38.0491 21.4927 38.3035 20.5332C38.5579 19.5417 38.6851 18.6622 38.6851 17.8946V17.6068C38.6851 16.8392 38.5579 15.9756 38.3035 15.0161C38.0491 14.0566 37.4608 13.1611 36.5386 12.3295C35.6481 11.466 34.3284 10.7624 32.5794 10.2186C30.8622 9.64294 28.5248 9.35509 25.5674 9.35509H19.6546C17.3615 9.35509 15.5026 11.214 15.5026 13.5072V22.0901Z" fill="white"/>
</svg>
